<svg width="193" height="37" viewBox="0 0 193 37" fill="none" xmlns="http://www.w3.org/2000/svg">
<path d="M0.643311 14.8566C0.718701 14.6917 0.794092 14.5267 0.907178 14.3853C0.756396 14.5267 0.681006 14.6917 0.643311 14.8566ZM9.95405 10.0965C10.2933 10.073 10.5949 10.073 10.9341 10.073C11.0095 10.073 11.0849 10.073 11.1603 10.073C10.7457 10.0494 10.3687 10.0494 9.95405 10.0965ZM18.0208 11.7225C18.2847 11.8875 18.5863 12.0289 18.8125 12.2174C18.5863 12.0289 18.3224 11.8639 18.0208 11.7225Z" fill="#1B70F1"/>
<path d="M16.2868 18.7215L20.2448 20.159C18.3224 22.2327 14.779 23.5288 10.9341 23.5288C5.01592 23.5288 0.190918 20.4889 0.190918 16.8128C0.190918 16.1529 0.341699 15.4931 0.643262 14.8804C0.718652 14.7155 0.794043 14.5505 0.907129 14.4091C1.171 14.1264 1.54795 13.8672 2.11338 13.7258C2.37725 13.6551 2.64111 13.6079 2.90498 13.5608C3.13115 12.359 4.41279 11.817 6.10908 11.5578C6.37295 11.5107 6.67451 11.4164 6.86299 11.275C7.80537 10.6388 8.86084 10.2382 9.954 10.1203C10.2933 10.0968 10.5948 10.0968 10.9341 10.0968C11.0095 10.0968 11.0849 10.0968 11.1603 10.0968C12.178 10.1675 13.2335 10.4502 14.2136 10.9922C14.4397 11.1101 14.8167 11.1808 15.1183 11.1808C16.2868 11.2043 17.2669 11.3928 18.0208 11.7463C18.2847 11.9113 18.5862 12.0527 18.8124 12.2412C19.3401 12.6182 19.8302 13.0188 20.2448 13.4666L19.7925 13.6315L17.5308 14.4563C17.0784 14.4327 16.6261 14.362 16.1737 14.3385C15.9853 14.3149 15.7968 14.3149 15.6083 14.3385C15.3821 14.1735 15.156 14.0321 14.8921 13.8907C15.269 13.8436 15.7214 13.8436 16.1737 13.8672C16.8522 13.9143 17.1538 13.7022 16.8522 13.3016C16.7015 13.0659 16.4376 12.8539 16.2114 12.5946C17.0784 12.7596 17.1538 12.7832 17.7946 13.5608C18.0208 13.82 18.3224 14.0321 18.737 13.8672C19.0009 13.7729 19.1894 13.443 19.114 13.2309C18.8878 12.4061 16.8899 11.5342 15.5706 11.6521C15.3821 11.6756 15.0806 11.8641 15.0806 11.982C15.0806 13.0895 15.0806 13.0895 13.5351 13.3016L13.4974 13.3252C13.2712 13.2545 13.0073 13.1838 12.7435 13.1366C12.555 12.3119 12.1026 12.1705 11.1603 11.4635C11.5372 11.5342 11.9142 11.6049 12.2157 11.7463C12.5927 11.9348 12.8942 12.2176 13.2712 12.4297C13.4974 12.5475 13.8743 12.5711 14.1759 12.6418C14.2513 12.4297 14.4397 12.2176 14.3644 12.0291C13.9874 11.2279 13.0073 10.7802 11.7257 10.6152C10.444 10.4502 9.23779 10.5445 8.22002 11.1336C8.06924 11.2043 7.99385 11.3221 8.03154 11.2986C8.86084 11.6285 9.76553 11.8641 10.4063 12.2883C10.7079 12.5004 10.9341 12.7125 11.0849 12.9717C11.0472 12.9717 10.9718 12.9717 10.8964 12.9717C10.6702 12.9717 10.4063 12.9717 10.1802 12.9953C9.91631 12.6182 9.46396 12.3119 8.89853 12.1233C7.5792 11.7227 5.39287 11.9113 4.29971 12.524C3.69658 12.8539 3.43271 13.2545 3.69658 13.7258C3.77197 13.8672 4.14893 14.0321 4.41279 14.0557C5.20439 14.1264 5.65674 13.7965 6.10908 13.443C6.18447 13.3959 6.18447 13.3016 6.22217 13.1838H4.86514C6.10908 12.5004 7.35303 12.6182 8.44619 13.3016C8.22002 13.3723 7.99385 13.4194 7.80537 13.5137C7.42842 13.3252 7.12685 13.3016 6.7876 13.6315C6.56143 13.8436 6.29756 14.0321 5.996 14.2206C5.1667 14.7391 4.11123 14.7391 3.20654 14.2442C3.05576 14.1499 2.64111 14.1028 2.52803 14.1735C2.18877 14.3149 1.73643 14.5505 1.73643 14.7391C1.73643 14.9983 2.07568 15.3046 2.41494 15.4696C3.16885 15.7995 4.11123 15.7523 4.90283 15.4931C5.01592 15.4696 5.09131 15.4224 5.20439 15.3989C4.94053 15.7759 4.78975 16.1765 4.75205 16.6007C4.75205 16.6949 4.75205 16.7892 4.75205 16.8835C4.75205 19.0279 7.5415 20.7481 10.9341 20.7481C13.2335 20.6538 15.2313 19.8762 16.2868 18.7215Z" fill="#1B70F1"/>
<path d="M33.0938 13.7729L31.8122 17.0013C31.586 16.9306 31.3222 16.8599 30.9452 16.7892C30.5683 16.7421 30.1913 16.7185 29.8144 16.7185C29.3997 16.7185 28.9851 16.7656 28.6081 16.8599C28.2312 16.9542 27.9296 17.0955 27.6657 17.2605C27.4019 17.4255 27.2134 17.6375 27.0626 17.8732C26.9118 18.1088 26.8364 18.3681 26.8364 18.6508V23.5288H22.1245V13.7965H26.5726L26.6856 15.2811C26.7987 15.1632 26.9495 15.0454 27.0626 14.9276C27.5903 14.5034 28.2312 14.1735 28.9474 13.9379C29.6636 13.7022 30.4552 13.5844 31.2468 13.5844C31.586 13.5844 31.9253 13.6079 32.2269 13.6315C32.5661 13.6786 32.83 13.7258 33.0938 13.7729Z" fill="#1B70F1"/>
<path d="M51.3787 13.7965L44.7443 23.5052L42.068 27.7233H37.4314L40.4848 23.246L33.5488 13.7965H38.8262L42.1057 18.6744C42.2941 18.91 42.4449 19.1692 42.5957 19.452C42.6711 19.5463 42.7088 19.6405 42.7465 19.7348C42.8973 19.4756 43.0104 19.2164 43.1988 18.91L46.0637 13.7729H51.3787V13.7965Z" fill="#1B70F1"/>
<path d="M68.9446 16.0351C68.3415 15.281 67.5122 14.6919 66.4944 14.2678C65.4766 13.8436 64.2704 13.6079 62.951 13.6079C62.0463 13.6079 61.217 13.7022 60.3877 13.9143C59.5584 14.1264 58.9176 14.3856 58.3899 14.7155C58.3145 14.7626 58.2391 14.8098 58.2014 14.8569L58.126 13.7965H53.678V27.5348H58.3899V22.5155C58.9553 22.8689 59.5961 23.1517 60.4254 23.3402C61.217 23.5523 62.0463 23.6466 62.951 23.6466C64.3081 23.6466 65.5143 23.4345 66.5321 23.0103C67.5876 22.5862 68.3792 21.997 68.9823 21.2194C69.5854 20.4653 69.887 19.5934 69.887 18.6037C69.8116 17.6611 69.51 16.7892 68.9446 16.0351ZM64.7981 20.0176C64.4965 20.3946 64.0819 20.6774 63.5542 20.9131C63.0264 21.1251 62.4233 21.2194 61.7071 21.2194C60.9909 21.2194 60.35 21.1251 59.8223 20.9131C59.2946 20.701 58.8799 20.4182 58.5784 20.0176C58.2768 19.617 58.126 19.1928 58.126 18.6508C58.126 18.1324 58.2768 17.6847 58.5784 17.3076C58.8799 16.9306 59.2946 16.6242 59.8223 16.4122C60.35 16.2001 60.9909 16.1058 61.7071 16.1058C62.4233 16.1058 63.0641 16.2001 63.5542 16.4122C64.0819 16.6242 64.4588 16.9306 64.7604 17.3076C65.062 17.6847 65.2127 18.1324 65.2127 18.6508C65.2504 19.1693 65.0997 19.617 64.7981 20.0176Z" fill="#1B70F1"/>
<path d="M81.9118 13.7964V14.0557C81.6102 14.2913 81.3464 14.527 81.1202 14.7862C80.6302 15.281 80.2532 15.7995 79.9893 16.365H78.8962V23.5287H74.222V16.365H71.4702V13.7964H74.222V11.3457H78.8962V13.7964H81.9118Z" fill="#1B70F1"/>
<path d="M91.7478 23.6937C90.1269 23.6937 88.6945 23.4816 87.4129 23.0339C86.1689 22.5862 85.1512 21.997 84.435 21.243C83.7187 20.4889 83.3418 19.617 83.3418 18.6508C83.3418 17.6847 83.7187 16.8128 84.435 16.0587C85.1512 15.3046 86.1689 14.7155 87.4129 14.2678C88.6568 13.82 90.1269 13.6079 91.7478 13.6079C93.3687 13.6079 94.8012 13.82 96.0828 14.2678C97.3268 14.7155 98.3445 15.3046 99.0607 16.0587C99.7769 16.8128 100.154 17.6847 100.154 18.6508C100.154 19.617 99.7769 20.4889 99.0607 21.243C98.3445 21.997 97.3644 22.5862 96.0828 23.0339C94.8012 23.4816 93.3687 23.6937 91.7478 23.6937ZM91.7478 21.1723C92.4641 21.1723 93.0672 21.0544 93.6326 20.8424C94.1603 20.6303 94.6127 20.3239 94.9143 19.9469C95.2158 19.5699 95.3666 19.1457 95.3666 18.6508C95.4043 18.156 95.2535 17.7318 94.9143 17.3312C94.6127 16.9542 94.1603 16.6478 93.6326 16.4357C93.1049 16.2236 92.4641 16.1058 91.7478 16.1058C91.0316 16.1058 90.4285 16.2236 89.8631 16.4357C89.2977 16.6478 88.883 16.9542 88.5437 17.3312C88.2422 17.7082 88.0914 18.156 88.0914 18.6508C88.0537 19.1457 88.2045 19.5699 88.5437 19.9469C88.8453 20.3239 89.2977 20.6303 89.8631 20.8424C90.4285 21.0544 91.0316 21.1723 91.7478 21.1723Z" fill="#1B70F1"/>
<path d="M117.461 18.1324C117.084 17.6847 116.556 17.3076 115.916 17.0013C115.463 16.7892 114.973 16.6478 114.446 16.53C115.124 16.3415 115.689 16.0587 116.104 15.7052C116.67 15.2104 116.971 14.5977 116.971 13.8672C116.971 13.2074 116.745 12.6418 116.217 12.1705C115.727 11.6992 114.973 11.3457 113.993 11.0865C113.013 10.8273 111.845 10.7095 110.412 10.7095H101.365V13.8907C101.742 14.1735 102.081 14.4799 102.383 14.8098C103.476 15.9409 104.042 17.2369 104.042 18.6508C104.042 20.0647 103.514 21.3608 102.421 22.4919C102.119 22.8218 101.78 23.1282 101.365 23.4109V23.5052H110.714C111.769 23.5052 112.787 23.4345 113.654 23.2696C114.559 23.1046 115.312 22.8689 115.991 22.539C116.67 22.2091 117.16 21.8085 117.499 21.3137C117.838 20.8424 118.027 20.2768 118.027 19.617C118.027 19.075 117.838 18.5801 117.461 18.1324ZM106.039 13.3016H109.507C110.374 13.3016 111.015 13.4194 111.43 13.6551C111.845 13.8907 112.071 14.1971 112.071 14.5741C112.071 14.8333 111.995 15.069 111.807 15.2575C111.618 15.446 111.354 15.5874 110.978 15.7052C110.601 15.7995 110.186 15.8466 109.658 15.8466H106.002V13.3016H106.039ZM112.787 20.2768C112.561 20.4889 112.297 20.6538 111.882 20.7481C111.505 20.8659 111.015 20.9131 110.487 20.9131H106.002V18.156H110.337C110.902 18.156 111.392 18.2031 111.807 18.2974C112.221 18.3916 112.523 18.5566 112.749 18.7451C112.975 18.9336 113.088 19.1693 113.088 19.452C113.126 19.8055 113.013 20.0647 112.787 20.2768Z" fill="white"/>
<path d="M132.348 13.7729L131.067 17.0013C130.84 16.9306 130.577 16.8599 130.2 16.7892C129.823 16.7185 129.483 16.7185 129.069 16.7185C128.654 16.7185 128.239 16.7656 127.862 16.8599C127.486 16.9542 127.184 17.0955 126.92 17.2605C126.656 17.4255 126.468 17.6375 126.317 17.8732C126.166 18.1088 126.091 18.368 126.091 18.6508V23.5288H121.379V13.7965H125.827L125.94 15.281C126.053 15.1632 126.166 15.0454 126.317 14.9511C126.845 14.527 127.486 14.1971 128.202 13.9614C128.918 13.7258 129.71 13.6079 130.501 13.6079C130.84 13.6079 131.18 13.6315 131.481 13.6551C131.783 13.6786 132.084 13.7258 132.348 13.7729Z" fill="white"/>
<path d="M144.561 13.7965V14.9747C144.26 14.7391 143.958 14.527 143.581 14.362C143.129 14.1264 142.564 13.9379 141.96 13.7965C141.357 13.6551 140.679 13.5844 139.925 13.5844C138.568 13.5844 137.362 13.7965 136.306 14.2206C135.251 14.6448 134.421 15.2575 133.818 16.0116C133.215 16.7656 132.914 17.6375 132.914 18.6273C132.914 19.5934 133.215 20.4653 133.818 21.2194C134.421 21.9735 135.251 22.5862 136.268 23.0103C137.286 23.4345 138.455 23.6466 139.774 23.6466C140.49 23.6466 141.131 23.5759 141.772 23.4581C142.413 23.3167 142.978 23.1517 143.468 22.9161C143.845 22.7511 144.184 22.539 144.448 22.3505V23.5052H149.198V13.7965H144.561ZM144.184 20.0176C143.883 20.3946 143.468 20.701 142.941 20.9131C142.413 21.1251 141.772 21.2194 141.056 21.2194C140.34 21.2194 139.736 21.1251 139.246 20.9131C138.719 20.701 138.304 20.4182 138.04 20.0176C137.739 19.6406 137.588 19.1928 137.588 18.6508C137.588 18.1324 137.739 17.6847 138.04 17.2841C138.342 16.907 138.719 16.6007 139.246 16.3886C139.736 16.1765 140.377 16.0823 141.056 16.0823C141.772 16.0823 142.413 16.1765 142.941 16.3886C143.468 16.6007 143.883 16.907 144.184 17.2841C144.486 17.6611 144.637 18.1324 144.637 18.6508C144.637 19.1693 144.486 19.617 144.184 20.0176Z" fill="white"/>
<path d="M155.945 11.8877C155.078 11.8877 154.362 11.7463 153.872 11.4871C153.382 11.2279 153.118 10.8509 153.118 10.356C153.118 9.90826 153.382 9.55479 153.872 9.27201C154.362 8.98923 155.078 8.84784 155.908 8.84784C156.775 8.84784 157.453 8.98923 157.943 9.24844C158.433 9.50766 158.659 9.88469 158.659 10.356C158.659 10.8037 158.396 11.1808 157.905 11.4635C157.415 11.7463 156.812 11.8877 155.945 11.8877ZM153.608 23.5288V13.7965H158.32V23.5052H153.608V23.5288Z" fill="white"/>
<path d="M177.359 17.5433V23.5052H172.647V17.8025C172.647 17.4019 172.572 17.0955 172.383 16.8363C172.195 16.5771 171.931 16.3886 171.592 16.2708C171.215 16.153 170.8 16.0823 170.272 16.1058C169.858 16.1058 169.481 16.153 169.141 16.2236C168.802 16.2943 168.501 16.4122 168.237 16.5771C167.973 16.7185 167.784 16.907 167.634 17.0955C167.483 17.2841 167.407 17.4961 167.407 17.7318V23.5523H162.733V13.7965H167.181L167.257 14.9983C167.332 14.9276 167.445 14.8569 167.52 14.7862C168.086 14.4327 168.764 14.1264 169.518 13.9143C170.31 13.7022 171.102 13.5844 171.969 13.5844C173.137 13.5844 174.117 13.7258 174.909 14.0321C175.7 14.3385 176.303 14.7862 176.718 15.3753C177.17 15.9644 177.359 16.6949 177.359 17.5433Z" fill="white"/>
<path d="M186.516 23.6937C185.009 23.6937 183.652 23.5523 182.483 23.246C181.314 22.9396 180.41 22.539 179.731 22.0206L182.558 20.4889C183.161 20.8659 183.84 21.1487 184.594 21.3137C185.348 21.5022 186.064 21.5729 186.743 21.5729C187.006 21.5729 187.27 21.5493 187.459 21.5257C187.685 21.4786 187.836 21.4315 187.986 21.3608C188.137 21.2901 188.25 21.2194 188.326 21.1251C188.401 21.0309 188.439 20.9366 188.439 20.7952C188.439 20.5596 188.25 20.3711 187.911 20.2297C187.723 20.159 187.459 20.0883 187.044 20.0176C186.629 19.9233 186.102 19.8291 185.461 19.7348C184.556 19.5934 183.765 19.4049 183.086 19.2164C182.408 19.0043 181.842 18.7686 181.427 18.5094C181.051 18.2502 180.749 17.9674 180.523 17.6611C180.297 17.3548 180.184 17.0013 180.184 16.6007C180.184 16.1529 180.372 15.7288 180.711 15.3753C181.051 14.9983 181.503 14.6919 182.068 14.4327C182.634 14.1735 183.312 13.9614 184.066 13.82C184.82 13.6786 185.612 13.6079 186.403 13.6079C187.27 13.6079 188.1 13.6786 188.853 13.7965C189.645 13.9143 190.361 14.0792 191.04 14.3149C191.718 14.527 192.321 14.7862 192.849 15.0925L190.399 16.8128C190.06 16.6007 189.645 16.4122 189.23 16.2472C188.778 16.0823 188.326 15.9409 187.873 15.8466C187.421 15.7523 186.969 15.7052 186.592 15.7052C186.29 15.7052 186.026 15.7288 185.8 15.7523C185.574 15.7759 185.385 15.823 185.235 15.8937C185.084 15.9644 184.971 16.0351 184.895 16.1294C184.82 16.2236 184.782 16.3179 184.782 16.4593C184.782 16.5771 184.82 16.6949 184.933 16.8128C185.046 16.9306 185.197 17.0248 185.385 17.0955C185.574 17.1662 185.876 17.2605 186.328 17.3312C186.743 17.4255 187.346 17.5433 188.1 17.6611C189.004 17.8261 189.796 17.991 190.474 18.2031C191.153 18.3916 191.681 18.6273 192.058 18.91C192.359 19.1221 192.585 19.3578 192.774 19.6405C192.925 19.9233 193 20.2061 193 20.536C193 21.1487 192.736 21.7143 192.171 22.1856C191.605 22.6569 190.851 23.0575 189.871 23.3167C188.891 23.5759 187.76 23.6937 186.516 23.6937Z" fill="white"/>
</svg>
